<?xml version="1.0" standalone="no"?>
<!DOCTYPE svg PUBLIC "-//W3C//DTD SVG 20010904//EN"
 "http://www.w3.org/TR/2001/REC-SVG-20010904/DTD/svg10.dtd">
<svg version="1.0" xmlns="http://www.w3.org/2000/svg"
 width="512.000000pt" height="512.000000pt" viewBox="0 0 512.000000 512.000000"
 preserveAspectRatio="xMidYMid meet">
<metadata>
Created by potrace 1.14, written by Peter Selinger 2001-2017
</metadata>
<g transform="translate(0.000000,512.000000) scale(0.100000,-0.100000)"
fill="#000000" stroke="none">
<path d="M2512 5097 c-22 -23 -22 -29 -22 -285 0 -144 -3 -262 -6 -262 -3 0
-63 34 -134 75 -151 87 -172 94 -206 60 -30 -30 -31 -69 -1 -98 12 -12 95 -64
185 -115 l162 -94 0 -189 c0 -104 -2 -189 -5 -189 -2 0 -156 88 -342 196 -215
124 -349 196 -367 196 -62 2 -91 -76 -45 -118 10 -9 184 -112 386 -229 l368
-212 3 -93 c3 -98 -3 -120 -89 -305 -10 -22 -47 -105 -82 -185 l-64 -145 -49
1 c-44 1 -111 7 -199 18 -16 2 -60 7 -96 10 -36 4 -76 8 -90 11 -13 2 -53 6
-87 10 -62 5 -84 14 -187 74 l-50 29 0 447 -1 447 -23 19 c-31 25 -73 24 -97
-2 -18 -20 -19 -46 -24 -423 l-5 -402 -162 94 -163 95 0 204 c0 203 0 204 -25
228 -30 31 -56 32 -91 2 l-27 -23 0 -162 c-1 -89 -3 -162 -5 -162 -3 0 -95 52
-205 116 -243 141 -255 147 -288 131 -13 -7 -30 -24 -37 -39 -23 -50 -4 -67
207 -189 108 -62 209 -121 224 -132 l28 -19 -126 -73 c-69 -40 -134 -80 -145
-90 -25 -23 -26 -76 -2 -98 23 -21 75 -22 105 -3 12 8 88 53 169 99 l147 85
90 -53 c49 -29 93 -54 98 -56 4 -2 38 -22 75 -43 l67 -40 -27 -16 c-15 -9
-170 -99 -345 -200 -222 -127 -322 -190 -330 -207 -15 -33 2 -75 37 -92 31
-15 47 -9 156 55 25 15 74 43 110 64 36 20 169 97 295 170 127 73 235 135 242
137 6 2 47 -16 91 -42 85 -49 92 -57 292 -335 30 -41 57 -77 60 -80 3 -3 22
-29 43 -57 l37 -53 -175 -239 -175 -239 -82 -46 c-75 -43 -85 -46 -107 -34
-14 7 -102 57 -196 112 -93 54 -186 107 -205 118 -19 11 -106 61 -193 111
-139 79 -161 89 -185 81 -38 -13 -59 -55 -46 -91 8 -23 68 -61 356 -227 292
-169 344 -202 330 -212 -9 -6 -37 -22 -62 -36 -89 -50 -225 -130 -236 -139 -6
-5 -75 29 -183 91 -188 108 -226 120 -255 78 -23 -32 -20 -71 6 -95 13 -11 73
-48 133 -83 61 -34 116 -67 123 -73 9 -7 -49 -45 -209 -138 -122 -71 -227
-136 -234 -145 -9 -14 -11 -35 -6 -64 4 -17 21 -32 49 -39 28 -8 45 -1 179 76
81 47 166 95 188 108 22 12 56 32 77 44 20 12 38 18 41 14 2 -4 4 -77 4 -162
l0 -155 27 -23 c33 -28 56 -29 90 -2 l26 20 0 209 0 208 163 94 c89 52 163 94
165 93 2 -2 3 -181 4 -399 1 -377 2 -398 20 -421 24 -30 66 -33 99 -6 l24 19
0 445 c0 245 3 448 5 450 3 2 41 25 85 50 59 34 95 47 135 52 51 5 95 10 179
20 19 3 64 7 100 10 36 3 91 9 122 13 32 5 74 8 95 8 l37 -1 119 -269 119
-270 -3 -94 -3 -94 -382 -221 c-399 -230 -412 -240 -393 -292 9 -25 33 -46 57
-49 24 -4 41 5 389 206 165 96 308 177 317 181 16 6 17 -11 17 -182 l0 -189
-162 -94 c-90 -51 -173 -103 -185 -115 -28 -27 -29 -63 -5 -93 31 -38 68 -28
210 54 72 42 133 76 136 76 3 0 6 -119 6 -264 l0 -265 26 -20 c34 -26 54 -26
88 0 l26 20 0 265 c0 145 2 264 5 264 3 0 65 -34 138 -76 142 -83 178 -92 209
-53 24 29 22 65 -4 92 -13 13 -96 65 -185 116 l-163 92 0 190 c0 104 2 189 5
189 2 0 48 -25 102 -57 54 -31 118 -67 143 -81 25 -14 50 -28 55 -32 6 -4 30
-19 55 -32 25 -14 100 -58 168 -97 161 -95 181 -103 212 -88 35 17 50 53 39
87 -8 22 -80 67 -392 248 l-382 221 0 103 1 103 115 260 116 260 44 0 c49 -1
196 -14 219 -20 13 -3 66 -9 200 -21 107 -9 135 -17 209 -61 42 -25 78 -47 81
-50 2 -2 5 -205 5 -450 l1 -445 23 -19 c31 -25 73 -24 97 2 18 20 19 44 22
424 l3 403 122 -70 c67 -39 140 -81 162 -93 l40 -23 5 -212 c5 -208 5 -212 29
-231 31 -25 54 -24 87 4 l27 24 0 161 c0 89 2 162 5 162 3 0 104 -57 224 -126
121 -70 230 -126 244 -126 47 -1 82 53 63 96 -10 20 -218 149 -411 255 -27 14
-48 28 -48 31 0 3 55 36 123 75 67 38 132 79 145 92 26 27 28 63 4 92 -31 39
-66 30 -216 -58 -76 -44 -141 -81 -143 -81 -3 0 -17 -9 -32 -20 l-28 -19 -164
95 c-90 53 -165 97 -166 98 -1 1 149 89 335 196 185 107 344 202 354 212 36
36 12 101 -42 113 -23 5 -146 -60 -442 -234 -67 -39 -324 -187 -339 -194 -12
-7 -40 4 -97 38 -78 45 -85 52 -188 193 -59 81 -138 189 -176 240 l-69 92 84
113 c45 61 124 169 175 239 87 120 97 129 174 173 l81 47 41 -23 c22 -12 185
-106 361 -207 376 -217 376 -217 413 -200 33 16 50 58 35 90 -7 15 -97 73
-259 167 -137 79 -293 170 -347 201 l-98 57 165 95 165 96 173 -100 c113 -65
183 -100 202 -100 39 1 66 28 66 68 0 41 -22 59 -173 144 -64 36 -117 67 -117
70 0 3 99 61 219 130 230 131 260 156 242 202 -11 28 -33 49 -58 52 -23 4 -37
-3 -267 -136 -104 -60 -194 -112 -201 -114 -10 -4 -13 33 -13 158 l-1 163 -26
22 c-14 13 -35 23 -46 23 -27 0 -69 -44 -70 -72 0 -13 0 -105 1 -204 l0 -182
-165 -95 c-146 -84 -165 -93 -165 -74 0 12 -1 194 -3 403 -2 360 -3 383 -21
403 -24 26 -66 27 -97 2 l-24 -19 0 -447 -1 -447 -84 -49 c-61 -34 -99 -50
-135 -53 -65 -7 -153 -17 -185 -21 -14 -2 -61 -7 -105 -10 -44 -4 -87 -8 -95
-10 -8 -3 -45 -7 -83 -10 l-68 -6 -21 48 c-11 26 -65 149 -120 272 l-99 224 3
95 3 96 358 206 c197 114 371 217 388 229 33 24 39 72 14 104 -26 36 -72 25
-190 -45 -60 -35 -135 -78 -165 -95 -30 -17 -134 -76 -230 -132 l-175 -101 -3
187 c-1 102 1 190 5 194 5 4 80 48 168 98 88 51 168 101 178 113 22 26 22 60
-1 87 -31 39 -67 30 -209 -53 -72 -42 -134 -76 -137 -76 -3 0 -6 118 -6 263 0
261 0 264 -22 283 -33 29 -70 29 -96 1z m277 -2153 c3 2 43 7 88 10 46 4 91 9
100 10 24 5 131 17 181 21 21 2 68 6 102 10 l64 7 -19 -29 c-10 -15 -30 -44
-45 -63 -78 -101 -250 -342 -250 -351 0 -8 221 -317 265 -371 7 -9 22 -29 31
-44 l18 -26 -75 7 c-41 4 -81 9 -89 10 -8 2 -51 6 -95 10 -44 4 -88 9 -99 11
-10 2 -51 6 -90 10 -39 3 -74 8 -77 10 -12 7 -27 -21 -104 -196 -42 -96 -88
-201 -102 -232 -14 -32 -29 -58 -33 -58 -4 0 -18 24 -30 53 -12 28 -58 132
-101 229 -43 98 -79 182 -79 187 0 10 -29 23 -38 17 -6 -4 -41 -8 -177 -21
-96 -10 -152 -16 -175 -20 -14 -2 -56 -6 -93 -10 -55 -5 -67 -3 -61 7 4 7 75
104 156 216 81 111 148 207 148 212 0 6 -67 101 -148 213 -82 111 -152 208
-157 216 -8 14 -10 14 145 -4 19 -2 65 -7 102 -10 37 -3 76 -8 87 -10 12 -2
58 -7 104 -11 45 -3 85 -8 88 -10 4 -2 41 76 84 174 43 97 93 211 112 252 l34
75 111 -253 c61 -138 113 -250 117 -248z"/>
</g>
</svg>
